<svg xmlns="http://www.w3.org/2000/svg" width="47" height="47" viewBox="0 0 47 47" fill="none"><path d="M2.20312 45.5312H44.7969C44.9916 45.5312 45.1784 45.4539 45.3162 45.3162C45.4539 45.1784 45.5312 44.9916 45.5312 44.7969V41.8594C45.5312 41.6646 45.4539 41.4778 45.3162 41.3401C45.1784 41.2024 44.9916 41.125 44.7969 41.125H44.0625V40.3906C44.0614 39.4171 43.6742 38.4838 42.9858 37.7954C42.2975 37.1071 41.3641 36.7198 40.3906 36.7188H39.6562V14.6875H44.0625C44.2573 14.6875 44.4441 14.6101 44.5818 14.4724C44.7195 14.3347 44.7969 14.1479 44.7969 13.9531V2.20312C44.7969 2.00836 44.7195 1.82157 44.5818 1.68384C44.4441 1.54612 44.2573 1.46875 44.0625 1.46875H2.9375C2.74273 1.46875 2.55594 1.54612 2.41822 1.68384C2.2805 1.82157 2.20312 2.00836 2.20312 2.20312V13.9531C2.20312 14.1479 2.2805 14.3347 2.41822 14.4724C2.55594 14.6101 2.74273 14.6875 2.9375 14.6875H7.34375V36.7188H6.60938C5.63587 36.7198 4.70255 37.1071 4.01417 37.7954C3.3258 38.4838 2.93859 39.4171 2.9375 40.3906V41.125H2.20312C2.00836 41.125 1.82157 41.2024 1.68384 41.3401C1.54612 41.4778 1.46875 41.6646 1.46875 41.8594V44.7969C1.46875 44.9916 1.54612 45.1784 1.68384 45.3162C1.82157 45.4539 2.00836 45.5312 2.20312 45.5312ZM3.67188 13.2188V2.9375H43.3281V13.2188H3.67188ZM30.0676 32.3125H30.1094C30.8884 32.3125 31.6356 32.003 32.1865 31.4521C32.7374 30.9012 33.0469 30.1541 33.0469 29.375C33.0469 28.5959 32.7374 27.8488 32.1865 27.2979C31.6356 26.747 30.8884 26.4375 30.1094 26.4375H17.625C17.4302 26.4375 17.2434 26.5149 17.1057 26.6526C16.968 26.7903 16.8906 26.9771 16.8906 27.1719V31.5781C16.8906 32.5645 17.1118 33.5383 17.5377 34.4279C17.9637 35.3175 18.5837 36.1003 19.3522 36.7188H8.8125V14.6875H16.1562V15.4219C16.1579 16.6575 16.6039 17.8513 17.4129 18.7853C18.2218 19.7193 19.3398 20.3312 20.5625 20.5092V21.2969C20.5625 21.4916 20.6399 21.6784 20.7776 21.8162C20.9153 21.9539 21.1021 22.0312 21.2969 22.0312C21.4916 22.0312 21.6784 21.9539 21.8162 21.8162C21.9539 21.6784 22.0312 21.4916 22.0312 21.2969V20.5625H24.9688V21.2969C24.9688 21.4916 25.0461 21.6784 25.1838 21.8162C25.3216 21.9539 25.5084 22.0312 25.7031 22.0312C25.8979 22.0312 26.0847 21.9539 26.2224 21.8162C26.3601 21.6784 26.4375 21.4916 26.4375 21.2969V20.5092C27.6602 20.3312 28.7782 19.7193 29.5871 18.7853C30.3961 17.8513 30.8421 16.6575 30.8438 15.4219V14.6875H38.1875V36.7188H27.6478C29.0036 35.6263 29.8733 34.0428 30.0676 32.3125ZM23.5 36.7188C22.1371 36.7172 20.8305 36.1751 19.8667 35.2114C18.903 34.2477 18.3609 32.941 18.3594 31.5781V27.9062H28.6406V31.5781C28.6391 32.941 28.097 34.2477 27.1333 35.2114C26.1695 36.1751 24.8629 36.7172 23.5 36.7188ZM30.1094 30.8438V27.9062C30.4989 27.9062 30.8725 28.061 31.1479 28.3364C31.4234 28.6119 31.5781 28.9855 31.5781 29.375C31.5781 29.7645 31.4234 30.1381 31.1479 30.4136C30.8725 30.689 30.4989 30.8438 30.1094 30.8438ZM17.6989 16.1562C17.6497 15.9146 17.6249 15.6685 17.625 15.4219V14.6875H29.375V15.4219C29.3751 15.6685 29.3503 15.9146 29.3011 16.1562H17.6989ZM28.6386 17.625C28.297 18.081 27.8538 18.4511 27.3443 18.706C26.8348 18.961 26.2729 19.0937 25.7031 19.0938H21.2969C20.7271 19.0937 20.1652 18.961 19.6557 18.706C19.1462 18.4511 18.703 18.081 18.3614 17.625H28.6386ZM4.40625 40.3906C4.40691 39.8065 4.63923 39.2465 5.05225 38.8335C5.46528 38.4205 6.02527 38.1882 6.60938 38.1875H40.3906C40.9747 38.1882 41.5347 38.4205 41.9477 38.8335C42.3608 39.2465 42.5931 39.8065 42.5938 40.3906V41.125H4.40625V40.3906ZM2.9375 42.5938H44.0625V44.0625H2.9375V42.5938Z" fill="white"></path><path d="M39.6563 7.34375C39.2205 7.34375 38.7946 7.47296 38.4323 7.71504C38.07 7.95713 37.7876 8.30121 37.6208 8.70378C37.4541 9.10634 37.4105 9.54932 37.4955 9.97668C37.5805 10.404 37.7903 10.7966 38.0984 11.1047C38.4065 11.4128 38.7991 11.6227 39.2264 11.7077C39.6538 11.7927 40.0968 11.749 40.4993 11.5823C40.9019 11.4155 41.246 11.1332 41.4881 10.7709C41.7302 10.4086 41.8594 9.98261 41.8594 9.54688C41.8587 8.96277 41.6264 8.40278 41.2134 7.98975C40.8003 7.57673 40.2404 7.34441 39.6563 7.34375ZM39.6563 10.2812C39.511 10.2812 39.369 10.2382 39.2483 10.1575C39.1275 10.0768 39.0334 9.9621 38.9778 9.82791C38.9222 9.69372 38.9077 9.54606 38.936 9.40361C38.9643 9.26115 39.0343 9.1303 39.137 9.02759C39.2397 8.92489 39.3705 8.85495 39.513 8.82661C39.6554 8.79827 39.8031 8.81282 39.9373 8.8684C40.0715 8.92398 40.1862 9.01811 40.2669 9.13888C40.3476 9.25965 40.3906 9.40163 40.3906 9.54688C40.3904 9.74158 40.313 9.92824 40.1753 10.0659C40.0376 10.2036 39.851 10.281 39.6563 10.2812Z" fill="white"></path><path d="M33.7813 7.34375C33.3455 7.34375 32.9196 7.47296 32.5573 7.71504C32.195 7.95713 31.9126 8.30121 31.7458 8.70378C31.5791 9.10634 31.5355 9.54932 31.6205 9.97668C31.7055 10.404 31.9153 10.7966 32.2234 11.1047C32.5315 11.4128 32.9241 11.6227 33.3514 11.7077C33.7788 11.7927 34.2218 11.749 34.6243 11.5823C35.0269 11.4155 35.371 11.1332 35.6131 10.7709C35.8552 10.4086 35.9844 9.98261 35.9844 9.54688C35.9837 8.96277 35.7514 8.40278 35.3384 7.98975C34.9253 7.57673 34.3654 7.34441 33.7813 7.34375ZM33.7813 10.2812C33.636 10.2812 33.494 10.2382 33.3733 10.1575C33.2525 10.0768 33.1584 9.9621 33.1028 9.82791C33.0472 9.69372 33.0327 9.54606 33.061 9.40361C33.0893 9.26115 33.1593 9.1303 33.262 9.02759C33.3647 8.92489 33.4955 8.85495 33.638 8.82661C33.7804 8.79827 33.9281 8.81282 34.0623 8.8684C34.1965 8.92398 34.3112 9.01811 34.3919 9.13888C34.4726 9.25965 34.5156 9.40163 34.5156 9.54688C34.5154 9.74158 34.438 9.92824 34.3003 10.0659C34.1626 10.2036 33.976 10.281 33.7813 10.2812Z" fill="white"></path><path d="M13.2188 4.40625H5.875C5.68023 4.40625 5.49344 4.48362 5.35572 4.62134C5.218 4.75907 5.14062 4.94586 5.14062 5.14062V8.07812C5.14062 8.27289 5.218 8.45968 5.35572 8.59741C5.49344 8.73513 5.68023 8.8125 5.875 8.8125H13.2188C13.4135 8.8125 13.6003 8.73513 13.738 8.59741C13.8758 8.45968 13.9531 8.27289 13.9531 8.07812V5.14062C13.9531 4.94586 13.8758 4.75907 13.738 4.62134C13.6003 4.48362 13.4135 4.40625 13.2188 4.40625ZM12.4844 7.34375H6.60938V5.875H12.4844V7.34375Z" fill="white"></path></svg>