<svg xmlns="http://www.w3.org/2000/svg" width="48" height="48" viewBox="0 0 48 48" fill="none"><path d="M16.1213 45.8157C16.65 45.8158 17.1779 45.7727 17.6996 45.6869C17.867 45.6598 18.0392 45.6268 18.2098 45.5889C19.166 45.3777 20.0847 45.0225 20.9343 44.5357C23.4706 43.0871 25.4683 40.4427 26.5593 37.0896C26.9265 35.9543 27.1861 34.787 27.3348 33.6032C27.6964 33.6385 28.0612 33.6582 28.4297 33.6582C30.6639 33.6582 33.0109 33.0122 35.3167 31.7509C38.2972 30.1205 40.9364 27.6007 42.9488 24.4641C47.4973 17.3776 47.6217 8.9639 43.2453 4.45893C42.4943 3.68429 41.6181 3.04182 40.6534 2.55852C37.7514 1.10249 34.1788 1.14843 30.5941 2.68761C27.0619 4.20402 23.8286 7.04699 21.4894 10.6922C20.7979 11.7689 20.1964 12.9009 19.6911 14.0766C17.6415 12.5693 15.3411 11.7017 12.9835 11.672C12.2452 11.6628 11.5084 11.7383 10.7873 11.897C10.4561 11.9698 10.1291 12.0605 9.80772 12.1688C6.7286 13.1976 4.2401 15.7611 2.80075 19.3876C1.38232 22.9595 1.11475 27.2566 2.0471 31.4861C3.89191 39.8594 9.8846 45.8157 16.1213 45.8157ZM42.6681 6.06683C44.1812 7.93537 44.9818 10.5411 44.9358 13.4962C44.8837 16.8634 43.7297 20.4712 41.6865 23.6541C39.8092 26.58 37.3577 28.9248 34.5969 30.435C32.2453 31.7213 29.7794 32.3068 27.5657 32.1183C31.9264 28.6936 34.8628 23.7739 35.8072 18.3102C36.5618 13.9695 38.6644 9.97674 41.8166 6.89858L42.6681 6.06683ZM39.2913 5.27821L40.4452 4.15161C40.539 4.20683 40.6333 4.26355 40.7265 4.3229C41.0405 4.52457 41.3402 4.74766 41.6235 4.99058L40.7687 5.82496C37.3907 9.12338 35.1376 13.402 34.3292 18.0535C33.5125 22.7778 31.0974 27.0779 27.4882 30.2338C27.468 29.6271 27.4224 29.0163 27.3516 28.4017C30.4525 25.1769 32.518 21.0983 33.2823 16.6903C34.0283 12.3466 36.132 8.35116 39.2913 5.27821ZM22.7516 11.5023C26.9008 5.03615 33.8193 1.69696 38.9857 3.48065L38.2435 4.20533C34.8581 7.498 32.6038 11.7792 31.8045 16.4336C31.1593 20.1566 29.5174 23.6353 27.0535 26.4999C27.0204 26.3332 26.9862 26.1665 26.9494 25.9997C25.9552 21.4873 23.7378 17.6372 20.9013 15.0676C21.4064 13.8244 22.0258 12.6309 22.7516 11.5023ZM13.7047 14.4066L13.7165 13.2159C16.1079 13.4629 18.519 14.7347 20.5804 16.8521C22.9293 19.2653 24.6711 22.6287 25.4851 26.3226C26.2664 29.8697 26.1413 33.5287 25.1336 36.6257C24.3621 38.9958 23.103 40.9583 21.5165 42.3008C22.1673 36.7943 20.7537 31.2421 17.549 26.7171C15.0406 23.1818 13.6963 18.9525 13.7033 14.6176C13.7033 14.5476 13.7033 14.4786 13.7043 14.4066H13.7047ZM10.775 15.0522L10.7903 13.4397C10.8962 13.4116 11.0025 13.3854 11.1095 13.3619C11.4744 13.2818 11.8443 13.2268 12.2166 13.1974L12.2048 14.3901C12.2038 14.4664 12.2038 14.5416 12.2038 14.6179C12.1962 19.263 13.6367 23.7951 16.3247 27.5835C19.3553 31.8624 20.6684 37.1235 20.0041 42.3247L19.8669 43.4085C19.4162 43.641 18.9449 43.8311 18.4591 43.9763L18.5622 43.1589C18.6806 42.2212 18.7401 41.277 18.7403 40.3319C18.7484 35.6857 17.3079 31.1524 14.6193 27.3631C12.068 23.7694 10.7219 19.4592 10.7746 15.0522H10.775ZM9.28441 14.0004L9.27457 15.0376C9.21823 19.7598 10.6607 24.3783 13.3946 28.2291C15.9036 31.7653 17.2479 35.9955 17.2406 40.3313C17.2403 41.2135 17.1847 42.0948 17.0741 42.97L16.9087 44.2776C14.239 44.5307 11.4624 43.4625 9.03044 41.2307C6.36278 38.7824 4.40304 35.2071 3.51213 31.1634C1.8581 23.6609 4.37397 16.4031 9.28441 14.0004Z" fill="white"></path><path d="M27.2015 10.849C27.391 10.8492 27.5735 10.7774 27.7121 10.6482C28.0267 10.3555 28.3575 10.0725 28.6952 9.80723C28.7726 9.74637 28.8373 9.67085 28.8856 9.58499C28.9338 9.49912 28.9647 9.4046 28.9764 9.3068C28.9881 9.20901 28.9805 9.10987 28.9539 9.01503C28.9273 8.9202 28.8823 8.83153 28.8214 8.75409C28.7606 8.67665 28.685 8.61196 28.5992 8.5637C28.5133 8.51545 28.4188 8.48458 28.321 8.47286C28.2232 8.46114 28.1241 8.46879 28.0292 8.49539C27.9344 8.52198 27.8457 8.56699 27.7683 8.62786C27.3982 8.91848 27.0355 9.22889 26.6902 9.54979C26.5798 9.6524 26.503 9.78586 26.4696 9.93278C26.4362 10.0797 26.4478 10.2333 26.503 10.3735C26.5581 10.5137 26.6542 10.634 26.7787 10.7189C26.9032 10.8037 27.0504 10.849 27.2011 10.849H27.2015Z" fill="white"></path><path d="M23.369 15.4542C23.4572 15.4982 23.5532 15.5243 23.6514 15.5311C23.7497 15.5379 23.8483 15.5252 23.9417 15.4939C24.0351 15.4625 24.1213 15.4131 24.1956 15.3484C24.2698 15.2837 24.3306 15.205 24.3744 15.1167C24.8523 14.1561 25.428 13.2474 26.0924 12.4048C26.1548 12.3277 26.2013 12.2389 26.2292 12.1436C26.257 12.0483 26.2657 11.9485 26.2547 11.8498C26.2436 11.7512 26.2132 11.6557 26.1649 11.5689C26.1167 11.4821 26.0518 11.4058 25.9739 11.3443C25.8959 11.2828 25.8066 11.2374 25.711 11.2107C25.6154 11.184 25.5154 11.1766 25.4169 11.1888C25.3184 11.201 25.2233 11.2327 25.1371 11.282C25.051 11.3312 24.9754 11.3971 24.9149 11.4758C24.1864 12.3994 23.5552 13.3957 23.0314 14.449C22.9429 14.6271 22.9287 14.833 22.992 15.0215C23.0554 15.21 23.191 15.3657 23.369 15.4542Z" fill="white"></path><path d="M8.85931 38.7415C8.9886 38.8927 9.17266 38.9864 9.371 39.0019C9.56934 39.0173 9.7657 38.9534 9.9169 38.8241C10.0681 38.6948 10.1617 38.5108 10.1772 38.3124C10.1927 38.1141 10.1288 37.9177 9.9995 37.7665C9.72021 37.4398 9.45115 37.0975 9.20028 36.7492C9.08401 36.5877 8.9084 36.4791 8.71205 36.4472C8.51571 36.4153 8.31473 36.4627 8.15333 36.579C7.99192 36.6952 7.88332 36.8708 7.8514 37.0672C7.81948 37.2635 7.86686 37.4645 7.98313 37.6259C8.25866 38.008 8.55341 38.3833 8.85931 38.7415Z" fill="white"></path><path d="M10.7097 40.5961C11.602 41.3626 12.5711 42.0349 13.6016 42.6023C13.6879 42.6502 13.7828 42.6806 13.8808 42.6917C13.9789 42.7028 14.0782 42.6944 14.173 42.6671C14.2678 42.6397 14.3563 42.594 14.4334 42.5323C14.5105 42.4707 14.5747 42.3945 14.6223 42.3081C14.6699 42.2216 14.6999 42.1266 14.7108 42.0285C14.7216 41.9304 14.7129 41.8312 14.6853 41.7364C14.6576 41.6417 14.6116 41.5533 14.5497 41.4764C14.4879 41.3995 14.4115 41.3356 14.3249 41.2882C13.385 40.7707 12.5011 40.1575 11.6871 39.4585C11.536 39.3308 11.3405 39.2679 11.1432 39.2836C10.946 39.2994 10.7629 39.3924 10.634 39.5425C10.505 39.6926 10.4406 39.8876 10.4548 40.085C10.469 40.2824 10.5606 40.4661 10.7097 40.5963V40.5961Z" fill="white"></path></svg>