<svg xmlns="http://www.w3.org/2000/svg" width="82" height="80" viewBox="0 0 82 80" fill="none"><path d="M24.579 69.375C25.0007 69.375 25.4123 69.2078 25.7114 68.9172C26.0092 68.6267 26.1806 68.2233 26.1806 67.8125C26.1806 67.4017 26.0092 66.9983 25.7114 66.7078C25.4123 66.4172 24.9988 66.25 24.579 66.25C24.1561 66.25 23.7451 66.4172 23.4467 66.7078C23.1476 66.9983 22.9762 67.4017 22.9762 67.8125C22.9762 68.2233 23.1476 68.6267 23.4467 68.9172C23.7432 69.2078 24.1561 69.375 24.579 69.375Z" fill="#A06D51"></path><path d="M30.9846 69.375H55.1795C56.0641 69.375 56.781 68.6755 56.781 67.8125C56.781 66.9495 56.0641 66.25 55.1795 66.25H30.9846C30.1 66.25 29.3831 66.9495 29.3831 67.8125C29.3831 68.6755 30.1 69.375 30.9846 69.375Z" fill="#A06D51"></path><path d="M73.6187 39.375H59.8984C61.6783 37.5604 62.775 35.1025 62.775 32.3987V30.625H63.0077C69.591 30.625 74.9469 25.3998 74.9469 18.9771V8.78052C74.9469 6.00647 72.634 3.75 69.7912 3.75H62.775V1.5625C62.775 0.699463 62.058 0 61.1734 0H25.2984C24.4144 0 23.6969 0.699463 23.6969 1.5625V32.3987C23.6969 35.1031 24.7942 37.5604 26.5734 39.375H17.9907C15.1354 39.375 12.8125 41.6412 12.8125 44.4269V53.6981C12.8125 54.3799 12.9526 55.0305 13.2048 55.625H8.3813C5.52602 55.625 3.20312 57.8912 3.20312 60.6769V74.9481C3.20312 77.7338 5.52602 80 8.3813 80H71.3765C74.2318 80 76.5547 77.7338 76.5547 74.9481V60.6769C76.5547 59.7894 76.3182 58.9551 75.9041 58.2294C77.6163 57.4042 78.7969 55.6836 78.7969 53.6981V44.4269C78.7969 41.6412 76.474 39.375 73.6187 39.375ZM75.5938 44.4269V53.6981C75.5938 54.7607 74.7079 55.625 73.6187 55.625H67.4477V42.5H73.6187C74.7079 42.5 75.5938 43.3643 75.5938 44.4269ZM17.9907 58.75H62.0024V76.875H17.2643V58.75H17.9907ZM34.0507 42.5H64.2439V55.625H26.8731V42.5H34.0507ZM69.7912 6.875C70.8679 6.875 71.7437 7.7301 71.7437 8.78052V18.9771C71.7437 23.6768 67.8249 27.5 63.0077 27.5H62.775V6.875H69.7912ZM49.1511 17.724L52.4781 19.7687V26.9592H45.8253V19.7687L49.1511 17.724ZM26.9 32.3987V3.125H47.5501V15.0153L43.3698 17.5842C42.9044 17.8705 42.6222 18.3691 42.6222 18.9062V28.5217C42.6222 29.3848 43.3392 30.0842 44.2238 30.0842H54.0796C54.9636 30.0842 55.6812 29.3848 55.6812 28.5217V18.9062C55.6812 18.3691 55.3984 17.8705 54.933 17.5842L50.7526 15.0153V3.125H59.5719V32.3987C59.5719 36.2457 56.3644 39.375 52.4211 39.375H34.0507C30.1081 39.375 26.9 36.2457 26.9 32.3987ZM16.0156 53.6981V44.4269C16.0156 43.3643 16.9015 42.5 17.9907 42.5H23.6706V55.625H17.9907C16.9015 55.625 16.0156 54.7607 16.0156 53.6981ZM6.40625 74.9481V60.6769C6.40625 59.6143 7.29211 58.75 8.3813 58.75H14.0612V76.875H8.3813C7.29211 76.875 6.40625 76.0107 6.40625 74.9481ZM73.3516 74.9481C73.3516 76.0107 72.4657 76.875 71.3765 76.875H65.2055V58.75H71.3765C72.4657 58.75 73.3516 59.6143 73.3516 60.6769V74.9481Z" fill="#A06D51"></path><path d="M34.1877 50.625H57.4216C58.3063 50.625 59.0232 49.9255 59.0232 49.0625C59.0232 48.1995 58.3063 47.5 57.4216 47.5H34.1877C33.3031 47.5 32.5862 48.1995 32.5862 49.0625C32.5862 49.9255 33.3031 50.625 34.1877 50.625Z" fill="#A06D51"></path></svg>