<svg xmlns="http://www.w3.org/2000/svg" width="49" height="49" viewBox="0 0 49 49" fill="none"><path d="M31.3906 3.44531H20.6719C20.2485 3.44531 19.9062 3.78831 19.9062 4.21094C19.9062 4.63356 20.2485 4.97656 20.6719 4.97656H31.3906C31.814 4.97656 32.1562 4.63356 32.1562 4.21094C32.1562 3.78831 31.814 3.44531 31.3906 3.44531Z" fill="white"></path><path d="M27.5625 3.44531C27.1391 3.44531 26.7969 3.78831 26.7969 4.21094V8.03906C26.7969 8.46169 27.1391 8.80469 27.5625 8.80469C27.9859 8.80469 28.3281 8.46169 28.3281 8.03906V4.21094C28.3281 3.78831 27.9859 3.44531 27.5625 3.44531Z" fill="white"></path><path d="M27.5625 7.27344H24.5C24.0766 7.27344 23.7344 7.61644 23.7344 8.03906C23.7344 8.46169 24.0766 8.80469 24.5 8.80469H27.5625C27.9859 8.80469 28.3281 8.46169 28.3281 8.03906C28.3281 7.61644 27.9859 7.27344 27.5625 7.27344Z" fill="white"></path><path d="M24.5 3.44531C24.0766 3.44531 23.7344 3.78831 23.7344 4.21094V8.03906C23.7344 8.46169 24.0766 8.80469 24.5 8.80469C24.9234 8.80469 25.2656 8.46169 25.2656 8.03906V4.21094C25.2656 3.78831 24.9234 3.44531 24.5 3.44531Z" fill="white"></path><path d="M20.6719 18.7578H11.4844C11.061 18.7578 10.7188 19.1008 10.7188 19.5234C10.7188 19.9461 11.061 20.2891 11.4844 20.2891H20.6719C21.0953 20.2891 21.4375 19.9461 21.4375 19.5234C21.4375 19.1008 21.0953 18.7578 20.6719 18.7578Z" fill="white"></path><path d="M31.3906 17.2266C30.9672 17.2266 30.625 17.5696 30.625 17.9922V31.0078C30.625 31.4312 30.9672 31.7734 31.3906 31.7734C31.814 31.7734 32.1562 31.4312 32.1562 31.0078V17.9922C32.1562 17.5696 31.814 17.2266 31.3906 17.2266Z" fill="white"></path><path d="M48.2344 36.3672H45.9536C45.5302 36.3672 45.188 36.7094 45.188 37.1328C45.188 37.5562 45.5302 37.8984 45.9536 37.8984H48.2344C48.6578 37.8984 49 37.5562 49 37.1328C49 36.7094 48.6578 36.3672 48.2344 36.3672Z" fill="white"></path><path d="M48.2344 36.3672C47.811 36.3672 47.4688 36.7094 47.4688 37.1328V40.1953C47.4688 40.6187 47.811 40.9609 48.2344 40.9609C48.6578 40.9609 49 40.6187 49 40.1953V37.1328C49 36.7094 48.6578 36.3672 48.2344 36.3672Z" fill="white"></path><path d="M7.65625 39.4297C7.65548 39.4297 7.65472 39.4297 7.65395 39.4297L2.29458 39.4458C1.87119 39.4473 1.52972 39.7903 1.53126 40.2137C1.53279 40.6363 1.87502 40.977 2.29688 40.977C2.29765 40.977 2.29841 40.977 2.29918 40.977L7.65855 40.9609C8.08194 40.9594 8.42341 40.6164 8.42187 40.193C8.42034 39.7704 8.07811 39.4297 7.65625 39.4297Z" fill="white"></path><path d="M47.4688 32.5391H46.7031C46.2797 32.5391 45.9375 32.8813 45.9375 33.3047C45.9375 33.7281 46.2797 34.0703 46.7031 34.0703H47.4688C47.8921 34.0703 48.2344 33.7281 48.2344 33.3047C48.2344 32.8813 47.8921 32.5391 47.4688 32.5391Z" fill="white"></path><path d="M47.4688 27.1797C47.0454 27.1797 46.7031 27.5219 46.7031 27.9453V37.1328C46.7031 37.5562 47.0454 37.8984 47.4688 37.8984C47.8921 37.8984 48.2344 37.5562 48.2344 37.1328V27.9453C48.2344 27.5219 47.8921 27.1797 47.4688 27.1797Z" fill="white"></path><path d="M42.875 17.2266H31.3906C30.9672 17.2266 30.625 17.5696 30.625 17.9922C30.625 18.4148 30.9672 18.7578 31.3906 18.7578H42.875C43.2984 18.7578 43.6406 18.4148 43.6406 17.9922C43.6406 17.5696 43.2984 17.2266 42.875 17.2266Z" fill="white"></path><path d="M48.1639 27.6245L43.5702 17.6714C43.3933 17.2878 42.9401 17.1201 42.5542 17.297C42.1699 17.4739 42.003 17.9294 42.1798 18.313L46.7735 28.2661C46.9029 28.5463 47.1801 28.7109 47.4695 28.7109C47.5767 28.7109 47.6854 28.6887 47.7895 28.6405C48.1739 28.4636 48.3408 28.0081 48.1639 27.6245Z" fill="white"></path><path d="M2.29688 36.3672C1.87348 36.3672 1.53125 36.7094 1.53125 37.1328V40.2436C1.53125 40.6669 1.87348 41.0092 2.29688 41.0092C2.72027 41.0092 3.0625 40.6662 3.0625 40.2436V37.1328C3.0625 36.7094 2.72027 36.3672 2.29688 36.3672Z" fill="white"></path><path d="M0.765625 26.4141C0.342234 26.4141 0 26.7563 0 27.1797V37.1328C0 37.5562 0.342234 37.8984 0.765625 37.8984C1.18902 37.8984 1.53125 37.5562 1.53125 37.1328V27.1797C1.53125 26.7563 1.18902 26.4141 0.765625 26.4141Z" fill="white"></path><path d="M31.3906 26.4141H0.765625C0.342234 26.4141 0 26.7563 0 27.1797C0 27.6031 0.342234 27.9453 0.765625 27.9453H31.3906C31.814 27.9453 32.1562 27.6031 32.1562 27.1797C32.1562 26.7563 31.814 26.4141 31.3906 26.4141Z" fill="white"></path><path d="M4.59375 36.3672H0.765625C0.342234 36.3672 0 36.7094 0 37.1328C0 37.5562 0.342234 37.8984 0.765625 37.8984H4.59375C5.01714 37.8984 5.35938 37.5562 5.35938 37.1328C5.35938 36.7094 5.01714 36.3672 4.59375 36.3672Z" fill="white"></path><path d="M12.25 34.8359C9.29545 34.8359 6.89062 37.2408 6.89062 40.1953C6.89062 43.1499 9.29545 45.5547 12.25 45.5547C15.2045 45.5547 17.6094 43.1499 17.6094 40.1953C17.6094 37.2408 15.2045 34.8359 12.25 34.8359ZM12.25 44.0234C10.1392 44.0234 8.42188 42.3061 8.42188 40.1953C8.42188 38.0845 10.1392 36.3672 12.25 36.3672C14.3608 36.3672 16.0781 38.0845 16.0781 40.1953C16.0781 42.3061 14.3608 44.0234 12.25 44.0234Z" fill="white"></path><path d="M12.25 37.8984C10.9837 37.8984 9.95312 38.929 9.95312 40.1953C9.95312 41.4617 10.9837 42.4922 12.25 42.4922C13.5163 42.4922 14.5469 41.4617 14.5469 40.1953C14.5469 38.929 13.5163 37.8984 12.25 37.8984ZM12.25 40.9609C11.8274 40.9609 11.4844 40.6179 11.4844 40.1953C11.4844 39.7727 11.8274 39.4297 12.25 39.4297C12.6726 39.4297 13.0156 39.7727 13.0156 40.1953C13.0156 40.6179 12.6726 40.9609 12.25 40.9609Z" fill="white"></path><path d="M37.5156 37.8984C36.2493 37.8984 35.2188 38.929 35.2188 40.1953C35.2188 41.4617 36.2493 42.4922 37.5156 42.4922C38.782 42.4922 39.8125 41.4617 39.8125 40.1953C39.8125 38.929 38.782 37.8984 37.5156 37.8984ZM37.5156 40.9609C37.093 40.9609 36.75 40.6179 36.75 40.1953C36.75 39.7727 37.093 39.4297 37.5156 39.4297C37.9383 39.4297 38.2812 39.7727 38.2812 40.1953C38.2812 40.6179 37.9383 40.9609 37.5156 40.9609Z" fill="white"></path><path d="M37.5156 34.8359C34.5611 34.8359 32.1562 37.2408 32.1562 40.1953C32.1562 43.1499 34.5611 45.5547 37.5156 45.5547C40.4702 45.5547 42.875 43.1499 42.875 40.1953C42.875 37.2408 40.4702 34.8359 37.5156 34.8359ZM37.5156 44.0234C35.4048 44.0234 33.6875 42.3061 33.6875 40.1953C33.6875 38.0845 35.4048 36.3672 37.5156 36.3672C39.6265 36.3672 41.3438 38.0845 41.3438 40.1953C41.3438 42.3061 39.6265 44.0234 37.5156 44.0234Z" fill="white"></path><path d="M32.941 39.4297H16.8438C16.4204 39.4297 16.0781 39.7719 16.0781 40.1953C16.0781 40.6187 16.4204 40.9609 16.8438 40.9609H32.941C33.3644 40.9609 33.7066 40.6187 33.7066 40.1953C33.7066 39.7719 33.3644 39.4297 32.941 39.4297Z" fill="white"></path><path d="M48.2344 39.4297H42.1094C41.686 39.4297 41.3438 39.7719 41.3438 40.1953C41.3438 40.6187 41.686 40.9609 42.1094 40.9609H48.2344C48.6578 40.9609 49 40.6187 49 40.1953C49 39.7719 48.6578 39.4297 48.2344 39.4297Z" fill="white"></path><path d="M47.4688 27.1797H38.2812C37.8579 27.1797 37.5156 27.5219 37.5156 27.9453C37.5156 28.3687 37.8579 28.7109 38.2812 28.7109H47.4688C47.8921 28.7109 48.2344 28.3687 48.2344 27.9453C48.2344 27.5219 47.8921 27.1797 47.4688 27.1797Z" fill="white"></path><path d="M38.2812 27.1797C37.0149 27.1797 35.9844 26.1492 35.9844 24.8828C35.9844 24.4602 35.6421 24.1172 35.2188 24.1172C34.7954 24.1172 34.4531 24.4602 34.4531 24.8828C34.4531 26.9936 36.1704 28.7109 38.2812 28.7109C38.7046 28.7109 39.0469 28.3687 39.0469 27.9453C39.0469 27.5219 38.7046 27.1797 38.2812 27.1797Z" fill="white"></path><path d="M35.2188 17.2266C34.7954 17.2266 34.4531 17.5696 34.4531 17.9922V24.8828C34.4531 25.3062 34.7954 25.6484 35.2188 25.6484C35.6421 25.6484 35.9844 25.3062 35.9844 24.8828V17.9922C35.9844 17.5696 35.6421 17.2266 35.2188 17.2266Z" fill="white"></path><path d="M31.3906 3.44531C30.9672 3.44531 30.625 3.78831 30.625 4.21094V27.1797C30.625 27.6031 30.9672 27.9453 31.3906 27.9453C31.814 27.9453 32.1562 27.6031 32.1562 27.1797V4.21094C32.1562 3.78831 31.814 3.44531 31.3906 3.44531Z" fill="white"></path><path d="M20.6719 3.44531C20.2485 3.44531 19.9062 3.78831 19.9062 4.21094V27.1797C19.9062 27.6031 20.2485 27.9453 20.6719 27.9453C21.0953 27.9453 21.4375 27.6031 21.4375 27.1797V4.21094C21.4375 3.78831 21.0953 3.44531 20.6719 3.44531Z" fill="white"></path><path d="M11.4844 9.57031C11.061 9.57031 10.7188 9.91331 10.7188 10.3359V27.1797C10.7188 27.6031 11.061 27.9453 11.4844 27.9453C11.9078 27.9453 12.25 27.6031 12.25 27.1797V10.3359C12.25 9.91331 11.9078 9.57031 11.4844 9.57031Z" fill="white"></path><path d="M16.0781 18.7578C15.6547 18.7578 15.3125 19.1008 15.3125 19.5234V21.8203C15.3125 22.2429 15.6547 22.5859 16.0781 22.5859C16.5015 22.5859 16.8438 22.2429 16.8438 21.8203V19.5234C16.8438 19.1008 16.5015 18.7578 16.0781 18.7578Z" fill="white"></path><path d="M20.6719 9.57031H11.4844C11.061 9.57031 10.7188 9.91331 10.7188 10.3359C10.7188 10.7586 11.061 11.1016 11.4844 11.1016H20.6719C21.0953 11.1016 21.4375 10.7586 21.4375 10.3359C21.4375 9.91331 21.0953 9.57031 20.6719 9.57031Z" fill="white"></path><path d="M16.0781 9.57031C15.6547 9.57031 15.3125 9.91331 15.3125 10.3359V11.8672C15.3125 12.2898 15.6547 12.6328 16.0781 12.6328C16.5015 12.6328 16.8438 12.2898 16.8438 11.8672V10.3359C16.8438 9.91331 16.5015 9.57031 16.0781 9.57031Z" fill="white"></path><path d="M2.29688 14.9297C1.87348 14.9297 1.53125 15.2727 1.53125 15.6953V27.1797C1.53125 27.6031 1.87348 27.9453 2.29688 27.9453C2.72027 27.9453 3.0625 27.6031 3.0625 27.1797V15.6953C3.0625 15.2727 2.72027 14.9297 2.29688 14.9297Z" fill="white"></path><path d="M11.4844 14.9297H2.29688C1.87348 14.9297 1.53125 15.2727 1.53125 15.6953C1.53125 16.1179 1.87348 16.4609 2.29688 16.4609H11.4844C11.9078 16.4609 12.25 16.1179 12.25 15.6953C12.25 15.2727 11.9078 14.9297 11.4844 14.9297Z" fill="white"></path><path d="M5.35938 14.9297C4.93598 14.9297 4.59375 15.2727 4.59375 15.6953V17.9922C4.59375 18.4148 4.93598 18.7578 5.35938 18.7578C5.78277 18.7578 6.125 18.4148 6.125 17.9922V15.6953C6.125 15.2727 5.78277 14.9297 5.35938 14.9297Z" fill="white"></path><path d="M8.42188 17.2266H5.35938C4.93598 17.2266 4.59375 17.5696 4.59375 17.9922C4.59375 18.4148 4.93598 18.7578 5.35938 18.7578H8.42188C8.84527 18.7578 9.1875 18.4148 9.1875 17.9922C9.1875 17.5696 8.84527 17.2266 8.42188 17.2266Z" fill="white"></path><path d="M8.42188 14.9297C7.99848 14.9297 7.65625 15.2727 7.65625 15.6953V17.9922C7.65625 18.4148 7.99848 18.7578 8.42188 18.7578C8.84527 18.7578 9.1875 18.4148 9.1875 17.9922V15.6953C9.1875 15.2727 8.84527 14.9297 8.42188 14.9297Z" fill="white"></path></svg>