<svg xmlns="http://www.w3.org/2000/svg" width="83" height="83" viewBox="0 0 83 83" fill="none"><path d="M59.4833 52.5666H23.5166C22.7527 52.5666 22.1333 53.186 22.1333 53.95V62.25C22.138 66.0684 25.2316 69.162 29.05 69.1667H55.3333C58.7984 69.1667 60.8666 66.581 60.8666 62.25V53.95C60.8666 53.186 60.2472 52.5666 59.4833 52.5666ZM58.1 62.25C58.1 66.4 56.0182 66.4 55.3333 66.4H29.05C26.7581 66.4 24.9 64.5418 24.9 62.25V55.3333H58.1V62.25Z" fill="#A06D51"></path><path d="M40.1167 62.25H42.8834C43.6473 62.25 44.2667 61.6306 44.2667 60.8666C44.2667 60.1027 43.6473 59.4833 42.8834 59.4833H40.1167C39.3528 59.4833 38.7334 60.1027 38.7334 60.8666C38.7334 61.6306 39.3528 62.25 40.1167 62.25Z" fill="#A06D51"></path><path d="M77.4666 74.7H71.9333V45.65C71.9333 44.8861 71.3139 44.2667 70.5499 44.2667H58.5221C62.5883 41.425 65.0125 36.7779 65.0166 31.8167V17.9833C65.0166 17.2194 64.3972 16.6 63.6332 16.6H48.4166V12.45C48.4166 11.6861 47.7972 11.0667 47.0332 11.0667H42.8832V8.3H63.6332C65.9251 8.3 67.7832 6.44182 67.7832 4.15C67.7832 1.85818 65.9251 0 63.6332 0H60.8666C58.5748 0 56.7166 1.85818 56.7166 4.15C56.7213 4.62214 56.8071 5.09023 56.9712 5.53333H41.4999C40.736 5.53333 40.1166 6.15273 40.1166 6.91667V11.0667H35.9666C35.2026 11.0667 34.5832 11.6861 34.5832 12.45V16.6H19.3666C18.6026 16.6 17.9832 17.2194 17.9832 17.9833V31.8167C17.9886 36.7792 20.4156 41.4264 24.4852 44.2667H12.4499C11.686 44.2667 11.0666 44.8861 11.0666 45.65V74.7H5.53324C4.7693 74.7 4.1499 75.3194 4.1499 76.0833V81.6167C4.1499 82.3806 4.7693 83 5.53324 83H77.4666C78.2305 83 78.8499 82.3806 78.8499 81.6167V76.0833C78.8499 75.3194 78.2305 74.7 77.4666 74.7ZM59.4832 4.15C59.4832 3.38606 60.1026 2.76667 60.8666 2.76667H63.6332C64.3972 2.76667 65.0166 3.38606 65.0166 4.15C65.0166 4.91394 64.3972 5.53333 63.6332 5.53333H60.8666C60.1026 5.53333 59.4832 4.91394 59.4832 4.15ZM37.3499 13.8333H45.6499V16.6H37.3499V13.8333ZM20.7499 31.8167V19.3667H62.2499V31.8167C62.2425 38.6894 56.6727 44.2592 49.7999 44.2667H33.1999C26.3271 44.2592 20.7573 38.6894 20.7499 31.8167ZM13.8332 47.0333H69.1666V74.7H13.8332V47.0333ZM76.0832 80.2333H6.91657V77.4667H76.0832V80.2333Z" fill="#A06D51"></path><path d="M59.4833 23.5167C59.4833 22.7527 58.8639 22.1333 58.0999 22.1333H24.8999C24.136 22.1333 23.5166 22.7527 23.5166 23.5167C23.5166 24.2806 24.136 24.9 24.8999 24.9H58.0999C58.8639 24.9 59.4833 24.2806 59.4833 23.5167Z" fill="#A06D51"></path></svg>