<svg xmlns="http://www.w3.org/2000/svg" width="80" height="80" viewBox="0 0 80 80" fill="none"><path d="M78.4375 50.0219C79.3004 50.0219 80 49.3223 80 48.4594C80 47.5964 79.3004 46.8969 78.4375 46.8969C77.5746 46.8969 76.875 47.5964 76.875 48.4594C76.875 49.3223 77.5746 50.0219 78.4375 50.0219Z" fill="#A06D51"></path><path d="M79.3858 4.77188C78.992 3.84063 78.428 3.00625 77.7108 2.28906C76.9936 1.57187 76.1592 1.00781 75.228 0.614062C74.2656 0.207813 73.2422 0 72.1875 0H7.8125C7.78422 0 7.75875 0.00140625 7.73547 0.00390625C6.90859 0.044375 6.25 0.725625 6.25 1.5625V25.9375C6.25 26.8005 6.94953 27.5 7.8125 27.5H11.925L15.3994 34.4487C15.6641 34.9781 16.2052 35.3125 16.7969 35.3125H23.0469C23.6388 35.3125 24.1797 34.9781 24.4444 34.4487L27.9187 27.5H32.0312C32.8942 27.5 33.5938 26.8005 33.5938 25.9375V18.9062H34.6875C37.2722 18.9062 39.375 21.0091 39.375 23.5938V63.4375C39.3703 66.0172 37.2672 68.1203 34.6875 68.125H33.5938V40C33.5938 39.137 32.8942 38.4375 32.0312 38.4375H7.8125C6.94953 38.4375 6.25 39.137 6.25 40V47.8125H1.5625C0.699531 47.8125 0 48.512 0 49.375V54.0625C0 57.8353 2.68828 60.9919 6.25 61.7178V78.4375C6.25 78.8484 6.41719 79.2516 6.70781 79.5422C6.99844 79.8328 7.40156 80 7.8125 80H72.1875C73.2422 80 74.2656 79.7938 75.2281 79.3859C76.1594 78.9922 76.9938 78.4281 77.7109 77.7109C78.4281 76.9938 78.9922 76.1594 79.3859 75.2281C79.7922 74.2656 80 73.2422 80 72.1875V55.4906C80 54.6297 79.2984 53.9297 78.4375 53.9297C77.5766 53.9297 76.8766 54.6281 76.875 55.4891V55.4906V72.1875C76.8703 74.7672 74.7672 76.8703 72.1875 76.875H9.375V71.25H34.6875C35.7422 71.25 36.7656 71.0422 37.7281 70.6359C38.6594 70.2422 39.4938 69.6797 40.2109 68.9609C40.9281 68.2438 41.4922 67.4094 41.8859 66.4781C42.2938 65.5156 42.5 64.4922 42.5 63.4375V23.5938C42.5 19.2859 38.9953 15.7812 34.6875 15.7812H9.375V3.125H72.1875C74.7672 3.12969 76.8703 5.23281 76.875 7.8125V41.4281C76.875 42.2906 77.5766 42.9906 78.4375 42.9906C79.2984 42.9906 80 42.2906 80 41.4281V7.8125C80 6.75781 79.7922 5.73438 79.3858 4.77188ZM3.125 54.0625V50.9375H6.25V58.4813C4.43141 57.8363 3.125 56.0994 3.125 54.0625ZM9.375 68.125V41.5625H30.4688V68.125H9.375ZM22.0813 32.1875H17.7625L15.4187 27.5H24.425L22.0813 32.1875ZM30.4688 18.9062V24.375H9.375V18.9062H30.4688Z" fill="#A06D51"></path><path d="M47.9688 28.9062C47.1059 28.9062 46.4062 29.6058 46.4062 30.4688V63.2812C46.4062 64.1442 47.1059 64.8438 47.9688 64.8438H71.4062C72.2691 64.8438 72.9688 64.1442 72.9688 63.2812V30.4688C72.9688 29.6058 72.2691 28.9062 71.4062 28.9062H47.9688ZM69.8438 32.0312V41.4062H49.5312V32.0312H69.8438ZM49.5312 61.7188V44.5312H69.8438V61.7188H49.5312Z" fill="#A06D51"></path><path d="M63.5938 54.6875H55.7812C54.9184 54.6875 54.2188 55.387 54.2188 56.25C54.2188 57.113 54.9184 57.8125 55.7812 57.8125H63.5938C64.4566 57.8125 65.1562 57.113 65.1562 56.25C65.1562 55.387 64.4566 54.6875 63.5938 54.6875Z" fill="#A06D51"></path><path d="M63.5938 48.4375H55.7812C54.9184 48.4375 54.2188 49.137 54.2188 50C54.2188 50.863 54.9184 51.5625 55.7812 51.5625H63.5938C64.4566 51.5625 65.1562 50.863 65.1562 50C65.1562 49.137 64.4566 48.4375 63.5938 48.4375Z" fill="#A06D51"></path><path d="M55.7812 38.2812C56.6442 38.2812 57.3438 37.5817 57.3438 36.7188C57.3438 35.8558 56.6442 35.1562 55.7812 35.1562C54.9183 35.1562 54.2188 35.8558 54.2188 36.7188C54.2188 37.5817 54.9183 38.2812 55.7812 38.2812Z" fill="#A06D51"></path><path d="M63.5938 38.2812C64.4567 38.2812 65.1562 37.5817 65.1562 36.7188C65.1562 35.8558 64.4567 35.1562 63.5938 35.1562C62.7308 35.1562 62.0312 35.8558 62.0312 36.7188C62.0312 37.5817 62.7308 38.2812 63.5938 38.2812Z" fill="#A06D51"></path></svg>