<svg xmlns="http://www.w3.org/2000/svg" width="80" height="80" viewBox="0 0 80 80" fill="none"><path d="M1.33333 80H78.6667C79.0203 80 79.3594 79.8595 79.6095 79.6095C79.8595 79.3594 80 79.0203 80 78.6667V73.3333C80 72.9797 79.8595 72.6406 79.6095 72.3905C79.3594 72.1405 79.0203 72 78.6667 72H77.3333V70.6667C77.3314 68.8992 76.6283 67.2046 75.3785 65.9548C74.1287 64.705 72.4342 64.002 70.6667 64H69.3333V24H77.3333C77.687 24 78.0261 23.8595 78.2761 23.6095C78.5262 23.3594 78.6667 23.0203 78.6667 22.6667V1.33333C78.6667 0.979711 78.5262 0.640573 78.2761 0.390524C78.0261 0.140476 77.687 0 77.3333 0H2.66667C2.31304 0 1.97391 0.140476 1.72386 0.390524C1.47381 0.640573 1.33333 0.979711 1.33333 1.33333V22.6667C1.33333 23.0203 1.47381 23.3594 1.72386 23.6095C1.97391 23.8595 2.31304 24 2.66667 24H10.6667V64H9.33333C7.56583 64.002 5.87129 64.705 4.62148 65.9548C3.37167 67.2046 2.66865 68.8992 2.66667 70.6667V72H1.33333C0.979711 72 0.640573 72.1405 0.390524 72.3905C0.140476 72.6406 0 72.9797 0 73.3333V78.6667C0 79.0203 0.140476 79.3594 0.390524 79.6095C0.640573 79.8595 0.979711 80 1.33333 80ZM4 21.3333V2.66667H76V21.3333H4ZM51.9242 56H52C53.4145 56 54.771 55.4381 55.7712 54.4379C56.7714 53.4377 57.3333 52.0812 57.3333 50.6667C57.3333 49.2522 56.7714 47.8956 55.7712 46.8954C54.771 45.8952 53.4145 45.3333 52 45.3333H29.3333C28.9797 45.3333 28.6406 45.4738 28.3905 45.7239C28.1405 45.9739 28 46.313 28 46.6667V54.6667C28 56.4575 28.4015 58.2255 29.1749 59.8407C29.9483 61.4559 31.074 62.8772 32.4692 64H13.3333V24H26.6667V25.3333C26.6696 27.5767 27.4794 29.7442 28.9482 31.44C30.4169 33.1358 32.4467 34.2467 34.6667 34.5698V36C34.6667 36.3536 34.8071 36.6928 35.0572 36.9428C35.3072 37.1929 35.6464 37.3333 36 37.3333C36.3536 37.3333 36.6928 37.1929 36.9428 36.9428C37.1929 36.6928 37.3333 36.3536 37.3333 36V34.6667H42.6667V36C42.6667 36.3536 42.8071 36.6928 43.0572 36.9428C43.3072 37.1929 43.6464 37.3333 44 37.3333C44.3536 37.3333 44.6928 37.1929 44.9428 36.9428C45.1929 36.6928 45.3333 36.3536 45.3333 36V34.5698C47.5533 34.2467 49.5831 33.1358 51.0518 31.44C52.5206 29.7442 53.3304 27.5767 53.3333 25.3333V24H66.6667V64H47.5308C49.9924 62.0166 51.5713 59.1415 51.9242 56ZM40 64C37.5255 63.9972 35.1532 63.0129 33.4035 61.2632C31.6537 59.5135 30.6695 57.1412 30.6667 54.6667V48H49.3333V54.6667C49.3305 57.1412 48.3463 59.5135 46.5965 61.2632C44.8468 63.0129 42.4745 63.9972 40 64ZM52 53.3333V48C52.7072 48 53.3855 48.281 53.8856 48.781C54.3857 49.2811 54.6667 49.9594 54.6667 50.6667C54.6667 51.3739 54.3857 52.0522 53.8856 52.5523C53.3855 53.0524 52.7072 53.3333 52 53.3333ZM29.4675 26.6667C29.3781 26.2279 29.3332 25.7812 29.3333 25.3333V24H50.6667V25.3333C50.6668 25.7812 50.6219 26.2279 50.5325 26.6667H29.4675ZM49.3297 29.3333C48.7094 30.1612 47.9048 30.8332 46.9797 31.296C46.0546 31.7589 45.0344 31.9999 44 32H36C34.9656 31.9999 33.9454 31.7589 33.0203 31.296C32.0952 30.8332 31.2906 30.1612 30.6703 29.3333H49.3297ZM5.33333 70.6667C5.33452 69.6062 5.75633 68.5894 6.50622 67.8396C7.25611 67.0897 8.27283 66.6679 9.33333 66.6667H70.6667C71.7272 66.6679 72.7439 67.0897 73.4938 67.8396C74.2437 68.5894 74.6655 69.6062 74.6667 70.6667V72H5.33333V70.6667ZM2.66667 74.6667H77.3333V77.3333H2.66667V74.6667Z" fill="#A06D51"></path><path d="M69.3334 10.6667C68.5423 10.6667 67.7689 10.9013 67.1111 11.3408C66.4533 11.7803 65.9406 12.405 65.6379 13.1359C65.3351 13.8668 65.2559 14.6711 65.4102 15.447C65.5646 16.223 65.9455 16.9357 66.505 17.4951C67.0644 18.0545 67.7771 18.4355 68.553 18.5898C69.3289 18.7441 70.1332 18.6649 70.8641 18.3622C71.595 18.0594 72.2197 17.5467 72.6593 16.8889C73.0988 16.2311 73.3334 15.4578 73.3334 14.6667C73.3322 13.6062 72.9104 12.5894 72.1605 11.8396C71.4106 11.0897 70.3939 10.6679 69.3334 10.6667ZM69.3334 16C69.0697 16 68.8119 15.9218 68.5926 15.7753C68.3734 15.6288 68.2025 15.4205 68.1015 15.1769C68.0006 14.9333 67.9742 14.6652 68.0257 14.4065C68.0771 14.1479 68.2041 13.9103 68.3906 13.7239C68.577 13.5374 68.8146 13.4104 69.0733 13.359C69.3319 13.3075 69.6 13.3339 69.8436 13.4348C70.0873 13.5357 70.2955 13.7066 70.442 13.9259C70.5885 14.1452 70.6667 14.403 70.6667 14.6667C70.6663 15.0202 70.5257 15.3591 70.2758 15.609C70.0258 15.859 69.6869 15.9996 69.3334 16Z" fill="#A06D51"></path><path d="M58.6666 10.6667C57.8755 10.6667 57.1021 10.9013 56.4443 11.3408C55.7865 11.7803 55.2739 12.405 54.9711 13.1359C54.6684 13.8668 54.5891 14.6711 54.7435 15.447C54.8978 16.223 55.2788 16.9357 55.8382 17.4951C56.3976 18.0545 57.1103 18.4355 57.8863 18.5898C58.6622 18.7441 59.4664 18.6649 60.1974 18.3622C60.9283 18.0594 61.553 17.5467 61.9925 16.8889C62.432 16.2311 62.6666 15.4578 62.6666 14.6667C62.6654 13.6062 62.2436 12.5894 61.4937 11.8396C60.7438 11.0897 59.7271 10.6679 58.6666 10.6667ZM58.6666 16C58.4029 16 58.1451 15.9218 57.9259 15.7753C57.7066 15.6288 57.5357 15.4205 57.4348 15.1769C57.3339 14.9333 57.3075 14.6652 57.3589 14.4065C57.4104 14.1479 57.5373 13.9103 57.7238 13.7239C57.9103 13.5374 58.1479 13.4104 58.4065 13.359C58.6651 13.3075 58.9332 13.3339 59.1769 13.4348C59.4205 13.5357 59.6287 13.7066 59.7752 13.9259C59.9218 14.1452 60 14.403 60 14.6667C59.9996 15.0202 59.859 15.3591 59.609 15.609C59.359 15.859 59.0201 15.9996 58.6666 16Z" fill="#A06D51"></path><path d="M21.3333 5.33333H7.99996C7.64634 5.33333 7.3072 5.47381 7.05715 5.72385C6.8071 5.9739 6.66663 6.31304 6.66663 6.66666V12C6.66663 12.3536 6.8071 12.6928 7.05715 12.9428C7.3072 13.1929 7.64634 13.3333 7.99996 13.3333H21.3333C21.6869 13.3333 22.0261 13.1929 22.2761 12.9428C22.5262 12.6928 22.6666 12.3536 22.6666 12V6.66666C22.6666 6.31304 22.5262 5.9739 22.2761 5.72385C22.0261 5.47381 21.6869 5.33333 21.3333 5.33333ZM20 10.6667H9.33329V8H20V10.6667Z" fill="#A06D51"></path></svg>