<svg xmlns="http://www.w3.org/2000/svg" width="48" height="48" viewBox="0 0 48 48" fill="none"><path d="M45.7939 42.0847H44.994V21.225C46.8002 20.0628 48 18.0362 48 15.7333C48 15.611 47.968 15.4907 47.9074 15.3845L42.328 5.62063C41.9362 4.93503 41.2022 4.50903 40.4125 4.50903H7.58747C6.79781 4.50903 6.06384 4.93494 5.67197 5.62063L0.092625 15.3845C0.0319687 15.4907 0 15.6111 0 15.7333C0 18.0362 1.19981 20.0628 3.006 21.225V42.0847H2.20613C1.81781 42.0847 1.503 42.3995 1.503 42.7878C1.503 43.1761 1.81781 43.4909 2.20613 43.4909H45.7939C46.1823 43.4909 46.497 43.1761 46.497 42.7878C46.497 42.3995 46.1822 42.0847 45.7939 42.0847ZM1.45472 16.4365H3.70884C4.09716 16.4365 4.41197 16.1217 4.41197 15.7333C4.41197 15.345 4.09716 15.0302 3.70884 15.0302H1.91475L6.89297 6.31831C7.03509 6.06969 7.30116 5.91528 7.58747 5.91528H40.4125C40.6988 5.91528 40.965 6.06969 41.107 6.31831L46.0852 15.0302H44.2907C43.9023 15.0302 43.5876 15.345 43.5876 15.7333C43.5876 16.1217 43.9023 16.4365 44.2907 16.4365H46.5452C46.2014 18.9287 44.0578 20.8544 41.4726 20.8544C38.8874 20.8544 36.7448 18.9285 36.401 16.4365H41.285C41.6734 16.4365 41.9881 16.1217 41.9881 15.7333C41.9881 15.345 41.6734 15.0302 41.285 15.0302H6.71541C6.32709 15.0302 6.01228 15.345 6.01228 15.7333C6.01228 16.1217 6.32709 16.4365 6.71541 16.4365H11.5989C11.2551 18.9285 9.11241 20.8544 6.52734 20.8544C3.94209 20.8544 1.7985 18.9287 1.45472 16.4365ZM34.8958 16.4365C34.5519 18.9285 32.4093 20.8544 29.8242 20.8544C27.2391 20.8544 25.0965 18.9285 24.7526 16.4365H34.8958ZM23.2474 16.4365C22.9035 18.9285 20.7608 20.8544 18.1758 20.8544C15.5907 20.8544 13.4481 18.9285 13.1042 16.4365H23.2474ZM39.8301 42.0848H32.2182V39.7334H39.8301V42.0848ZM39.8301 38.3272H32.2182V25.4547H39.8301V38.3272ZM43.5877 42.0848H41.2364V24.7515C41.2364 24.3632 40.9217 24.0484 40.5333 24.0484H31.5152C31.1268 24.0484 30.8121 24.3632 30.8121 24.7515V42.0847H4.41225V21.907C5.07609 22.1351 5.78709 22.2607 6.52734 22.2607C9.0675 22.2607 11.2733 20.8023 12.3516 18.6788C13.4298 20.8022 15.6356 22.2607 18.1758 22.2607C20.7159 22.2607 22.9218 20.8023 24 18.6788C25.0782 20.8022 27.2841 22.2607 29.8242 22.2607C32.3644 22.2607 34.5702 20.8023 35.6484 18.6788C36.7267 20.8022 38.9325 22.2607 41.4727 22.2607C42.2129 22.2607 42.9239 22.1351 43.5877 21.9071V42.0848Z" fill="white"></path><path d="M27.7575 24.0483H7.46667C7.07836 24.0483 6.76355 24.3632 6.76355 24.7515V39.0303C6.76355 39.4186 7.07836 39.7334 7.46667 39.7334H27.7575C28.1459 39.7334 28.4607 39.4186 28.4607 39.0303V24.7515C28.4607 24.3631 28.1459 24.0483 27.7575 24.0483ZM27.0544 38.3271H8.1698V25.4546H27.0544V38.3271Z" fill="white"></path></svg>